<?xml version="1.0" encoding="utf-8"?>
<!-- Generator: Adobe Illustrator 28.2.0, SVG Export Plug-In . SVG Version: 6.00 Build 0)  -->
<svg version="1.1" id="Layer_1" xmlns="http://www.w3.org/2000/svg" xmlns:xlink="http://www.w3.org/1999/xlink" x="0px" y="0px"
	 viewBox="0 0 100 100" style="enable-background:new 0 0 100 100;" xml:space="preserve">
<g>
	<path d="M50,10c-22.1,0-40,17.9-40,40s17.9,40,40,40s40-17.9,40-40S72.1,10,50,10z M50,87c-20.4,0-37-16.6-37-37s16.6-37,37-37
		s37,16.6,37,37S70.4,87,50,87z"/>
	<path d="M59.8,46c1.3-1.9,2-4.2,2-6.6c0-6.5-5.3-11.8-11.8-11.8s-11.8,5.3-11.8,11.8c0,2.4,0.8,4.7,2,6.6
		c-5.9,3.4-9.9,9.8-9.9,17.1c0,3.2,0.8,5.5,2.4,7c1.9,1.8,4.7,2.2,8,2.2c1.3,0,2.8-0.1,4.2-0.1c1.7-0.1,3.4-0.2,5.2-0.2
		s3.5,0.1,5.2,0.2c5.1,0.2,9.5,0.5,12.2-2.1c1.6-1.5,2.4-3.8,2.4-7C69.7,55.8,65.7,49.4,59.8,46L59.8,46z M50,30.6
		c4.9,0,8.8,4,8.8,8.8s-4,8.8-8.8,8.8s-8.8-3.9-8.8-8.8S45.1,30.6,50,30.6z M65.3,68c-1.8,1.7-5.6,1.5-10,1.3
		c-1.7-0.1-3.5-0.2-5.3-0.2s-3.6,0.1-5.3,0.2c-4.4,0.2-8.2,0.4-10-1.3c-1-0.9-1.4-2.5-1.4-4.8c0-6.4,3.6-12,9-14.8
		c2.1,1.8,4.8,2.9,7.7,2.9c3,0,5.7-1.1,7.7-2.9c5.3,2.8,9,8.4,9,14.8C66.7,65.5,66.3,67.1,65.3,68L65.3,68z"/>
</g>
</svg>